<svg xmlns="http://www.w3.org/2000/svg" width="10.667" height="7.333" viewBox="0 0 10.667 7.333" fill="none">
  <path d="M 11.232 0.566 C 11.545 0.253 11.545 -0.253 11.232 -0.566 C 10.92 -0.878 10.413 -0.878 10.101 -0.566 L 11.232 0.566 Z M 3.333 7.333 L 2.768 7.899 C 2.918 8.049 3.121 8.133 3.333 8.133 C 3.546 8.133 3.749 8.049 3.899 7.899 L 3.333 7.333 Z M 0.566 3.434 C 0.253 3.122 -0.253 3.122 -0.566 3.434 C -0.878 3.747 -0.878 4.253 -0.566 4.566 L 0.566 3.434 Z M 10.101 -0.566 L 2.768 6.768 L 3.899 7.899 L 11.232 0.566 L 10.101 -0.566 Z M 3.899 6.768 L 0.566 3.434 L -0.566 4.566 L 2.768 7.899 L 3.899 6.768 Z" fill="currentColor" fill-rule="nonzero"/>
</svg>
