<svg xmlns="http://www.w3.org/2000/svg" width="12" height="12" viewBox="0 0 12 12" fill="none">
  <path d="M 0 0 L 0 -0.8 C -0.442 -0.8 -0.8 -0.442 -0.8 0 L 0 0 Z M 4.667 0 L 5.467 0 C 5.467 -0.442 5.108 -0.8 4.667 -0.8 L 4.667 0 Z M 4.667 4.667 L 4.667 5.467 C 5.108 5.467 5.467 5.108 5.467 4.667 L 4.667 4.667 Z M 0 4.667 L -0.8 4.667 C -0.8 5.108 -0.442 5.467 0 5.467 L 0 4.667 Z M 7.333 0 L 7.333 -0.8 C 6.892 -0.8 6.533 -0.442 6.533 0 L 7.333 0 Z M 12 0 L 12.8 0 C 12.8 -0.442 12.442 -0.8 12 -0.8 L 12 0 Z M 12 4.667 L 12 5.467 C 12.442 5.467 12.8 5.108 12.8 4.667 L 12 4.667 Z M 7.333 4.667 L 6.533 4.667 C 6.533 5.108 6.892 5.467 7.333 5.467 L 7.333 4.667 Z M 7.333 7.333 L 7.333 6.533 C 6.892 6.533 6.533 6.892 6.533 7.333 L 7.333 7.333 Z M 12 7.333 L 12.8 7.333 C 12.8 6.892 12.442 6.533 12 6.533 L 12 7.333 Z M 12 12 L 12 12.8 C 12.442 12.8 12.8 12.442 12.8 12 L 12 12 Z M 7.333 12 L 6.533 12 C 6.533 12.442 6.892 12.8 7.333 12.8 L 7.333 12 Z M 0 7.333 L 0 6.533 C -0.442 6.533 -0.8 6.892 -0.8 7.333 L 0 7.333 Z M 4.667 7.333 L 5.467 7.333 C 5.467 6.892 5.108 6.533 4.667 6.533 L 4.667 7.333 Z M 4.667 12 L 4.667 12.8 C 5.108 12.8 5.467 12.442 5.467 12 L 4.667 12 Z M 0 12 L -0.8 12 C -0.8 12.442 -0.442 12.8 0 12.8 L 0 12 Z M 0 0.8 L 4.667 0.8 L 4.667 -0.8 L 0 -0.8 L 0 0.8 Z M 3.867 0 L 3.867 4.667 L 5.467 4.667 L 5.467 0 L 3.867 0 Z M 4.667 3.867 L 0 3.867 L 0 5.467 L 4.667 5.467 L 4.667 3.867 Z M 0.8 4.667 L 0.8 0 L -0.8 0 L -0.8 4.667 L 0.8 4.667 Z M 7.333 0.8 L 12 0.8 L 12 -0.8 L 7.333 -0.8 L 7.333 0.8 Z M 11.2 0 L 11.2 4.667 L 12.8 4.667 L 12.8 0 L 11.2 0 Z M 12 3.867 L 7.333 3.867 L 7.333 5.467 L 12 5.467 L 12 3.867 Z M 8.133 4.667 L 8.133 0 L 6.533 0 L 6.533 4.667 L 8.133 4.667 Z M 7.333 8.133 L 12 8.133 L 12 6.533 L 7.333 6.533 L 7.333 8.133 Z M 11.2 7.333 L 11.2 12 L 12.8 12 L 12.8 7.333 L 11.2 7.333 Z M 12 11.2 L 7.333 11.2 L 7.333 12.8 L 12 12.8 L 12 11.2 Z M 8.133 12 L 8.133 7.333 L 6.533 7.333 L 6.533 12 L 8.133 12 Z M 0 8.133 L 4.667 8.133 L 4.667 6.533 L 0 6.533 L 0 8.133 Z M 3.867 7.333 L 3.867 12 L 5.467 12 L 5.467 7.333 L 3.867 7.333 Z M 4.667 11.2 L 0 11.2 L 0 12.8 L 4.667 12.8 L 4.667 11.2 Z M 0.8 12 L 0.8 7.333 L -0.8 7.333 L -0.8 12 L 0.8 12 Z" fill="currentColor" fill-rule="nonzero"/>
</svg>
